<?xml version="1.0" encoding="utf-8"?>
<!-- Generator: Adobe Illustrator 16.0.4, SVG Export Plug-In . SVG Version: 6.00 Build 0)  -->
<!DOCTYPE svg PUBLIC "-//W3C//DTD SVG 1.1//EN" "http://www.w3.org/Graphics/SVG/1.1/DTD/svg11.dtd">
<svg version="1.1" id="Layer_1" xmlns="http://www.w3.org/2000/svg" xmlns:xlink="http://www.w3.org/1999/xlink" x="0px" y="0px"
	 width="512px" height="512px" viewBox="0 0 512 512" enable-background="new 0 0 512 512" xml:space="preserve">
<g id="Layer_2">
	<g id="remove_x5F_2_1_">
		<path fill="#777777" d="M337.5,255.9l144.3-144.3c5.6-5.6,5.6-14.9,0-20.5l-60.9-60.9c-5.6-5.6-14.9-5.6-20.5,0L256,174.6
			L111.7,30.2c-5.6-5.6-14.9-5.6-20.5,0L30.2,91.1c-5.6,5.6-5.6,14.8,0,20.5l144.4,144.3L30.2,400.3c-5.6,5.6-5.6,14.9,0,20.5
			l60.9,60.9c5.6,5.6,14.9,5.6,20.5,0L256,337.4l144.3,144.3c5.6,5.6,14.9,5.6,20.5,0l60.9-60.9c5.6-5.6,5.6-14.9,0-20.5
			L337.5,255.9z"/>
	</g>
</g>
</svg>
